<?xml version="1.0" encoding="UTF-8"?>
<!-- Generator: visioncortex VTracer 0.6.12 -->
<svg version="1.1" xmlns="http://www.w3.org/2000/svg" width="163" height="82">
<path d="M0 0 C3.96 0 7.92 0 12 0 C12 12.21 12 24.42 12 37 C16.373 36.917 20.745 36.835 25.25 36.75 C26.623 36.734 27.996 36.718 29.411 36.702 C29.954 36.687 29.954 36.687 32.703 36.609 C33.258 36.599 33.258 36.599 36.067 36.546 C39 36 39 36 41.456 34.462 C43 32 43 32 42 24 C36.72 23.34 31.44 22.68 26 22 C26 26.29 26 30.58 26 35 C22.37 35 18.74 35 15 35 C15 27.08 15 19.16 15 11 C19.021 10.908 23.039 10.828 27.061 10.78 C28.426 10.76 29.792 10.733 31.157 10.698 C33.128 10.649 35.099 10.629 37.07 10.609 C37.662 10.599 37.662 10.599 40.657 10.546 C45.763 11.24 48.816 13.718 52.25 17.438 C55.663 22.435 56.867 26.944 56 33 C54.137 39.34 51.508 43.365 46 47 C40.822 49.214 36.19 49.263 30.664 49.195 C29.884 49.193 29.103 49.191 28.3 49.189 C25.408 49.179 22.516 49.151 19.625 49.125 C16.387 49.104 16.387 49.104 0 49 C0 32.83 0 16.66 0 0 Z " fill="#EBD12A" transform="translate(54,15)"/>
<path d="M0 0 C9.24 0 18.48 0 28 0 C28.33 0.99 28.66 1.98 29 3 C29.66 3.33 30.32 3.66 31 4 C30.67 4.165 30.67 4.165 29 5 C29.99 5.99 30.98 6.98 32 8 C32.99 7.67 33.98 7.34 35 7 C34.907 7.402 34.907 7.402 34.438 9.438 C34.293 10.283 34.149 11.129 34 12 C34.165 12.165 34.165 12.165 35 13 C35.33 11.02 35.66 9.04 36 7 C37.938 6.437 37.938 6.437 40 6 C41 7 41 7 41.125 10.5 C41 14 41 14 40 15 C37.667 15 35.333 15 33 15 C32.67 15.33 32.34 15.66 32 16 C29.938 15.563 29.938 15.563 28 15 C28 15.66 28 16.32 28 17 C31.63 17 35.26 17 39 17 C39 17.33 39 17.66 39 18 C30.42 18 21.84 18 13 18 C13 25.92 13 33.84 13 42 C16.63 42 20.26 42 24 42 C24 37.71 24 33.42 24 29 C36.511 28.728 36.511 28.728 40 31 C41.907 33.543 42.006 34.856 41.875 38.062 C40.833 41.561 40.123 42.218 37 44 C34.067 44.341 34.067 44.341 30.703 44.293 C30.16 44.289 30.16 44.289 27.411 44.27 C26.038 44.243 24.665 44.216 23.25 44.188 C18.877 44.126 14.505 44.064 10 44 C10 31.13 10 18.26 10 5 C6.7 5 3.4 5 0 5 C0 3.35 0 1.7 0 0 Z " fill="#342D14" transform="translate(56,8)"/>
<path d="M0 0 C0.33 0 0.66 0 1 0 C1 12.21 1 24.42 1 37 C5.373 36.917 9.745 36.835 14.25 36.75 C15.623 36.734 16.996 36.718 18.411 36.702 C18.954 36.687 18.954 36.687 21.703 36.609 C22.258 36.599 22.258 36.599 25.067 36.546 C28.608 35.887 29.824 34.819 32 32 C32.172 29.859 32.172 29.859 31.75 27.75 C31.502 26.513 31.255 25.275 31 24 C28.525 23.67 28.525 23.67 16 22 C16 21.67 16 21.34 16 21 C17.917 20.973 19.833 20.954 21.75 20.938 C22.284 20.932 22.284 20.932 24.984 20.902 C27.551 20.985 29.602 21.109 32 22 C32.165 22.33 32.165 22.33 33 24 C34.98 23.34 36.96 22.68 39 22 C38.691 21.402 38.381 20.804 38.062 20.188 C37 18 37 18 36 15 C35.34 15 34.68 15 34 15 C33.835 14.505 33.835 14.505 33 12 C37.889 13.397 40.054 15.94 43 20 C45.298 24.159 45.667 28.339 45 33 C43.159 39.267 40.527 43.472 35 47 C34.01 46.67 33.02 46.34 32 46 C32.66 45.67 33.32 45.34 34 45 C33.67 44.34 33.34 43.68 33 43 C33.66 42.67 34.32 42.34 35 42 C34.34 40.68 33.68 39.36 33 38 C22.11 38 11.22 38 0 38 C0 25.46 0 12.92 0 0 Z " fill="#E9CD19" transform="translate(65,15)"/>
<path d="M0 0 C0.625 2.812 0.625 2.812 1 6 C0.34 6.99 -0.32 7.98 -1 9 C-4.223 9.293 -4.223 9.293 -8.062 9.188 C-9.332 9.16 -10.602 9.133 -11.91 9.105 C-12.93 9.071 -13.949 9.036 -15 9 C-15.946 9 -16.892 9.008 -17.838 9.016 C-20.434 9.037 -23.029 9.05 -25.625 9.062 C-26.516 9.071 -27.406 9.079 -28.324 9.088 C-33.333 9.106 -38.064 8.859 -43 8 C-43 7.34 -43 6.68 -43 6 C-39.535 5.505 -39.535 5.505 -22 3 C-25.63 3 -29.26 3 -33 3 C-33 2.34 -33 1.68 -33 1 C-28.943 0.857 -24.886 0.714 -20.83 0.573 C-19.45 0.525 -18.071 0.476 -16.692 0.427 C-14.706 0.357 -12.72 0.288 -10.734 0.219 C-9.54 0.177 -8.346 0.135 -7.116 0.092 C-4.745 0.022 -2.372 0 0 0 Z " fill="#E9CC16" transform="translate(100,52)"/>
<path d="M0 0 C12.48 -0.371 12.48 -0.371 14.863 1.328 C16.593 3.873 16.875 5.949 17 9 C15.957 11.176 15.957 11.176 14 13 C10.645 13.391 10.645 13.391 6.812 13.25 C5.54 13.214 4.268 13.178 2.957 13.141 C1.981 13.094 1.005 13.048 0 13 C0 8.71 0 4.42 0 0 Z " fill="#100C09" transform="translate(81,38)"/>
<path d="M0 0 C1.98 0 3.96 0 6 0 C6.33 10.23 6.66 20.46 7 31 C6.34 31 5.68 31 5 31 C5 31.66 5 32.32 5 33 C3.35 33 1.7 33 0 33 C0 22.11 0 11.22 0 0 Z " fill="#E9CB16" transform="translate(57,23)"/>
<path d="M0 0 C-0.33 1.32 -0.66 2.64 -1 4 C-9.91 3.67 -18.82 3.34 -28 3 C-28 8.28 -28 13.56 -28 19 C-25.69 19 -23.38 19 -21 19 C-21 16.69 -21 14.38 -21 12 C-20.67 12 -20.34 12 -20 12 C-20 14.97 -20 17.94 -20 21 C-22.97 21 -25.94 21 -29 21 C-29 13.74 -29 6.48 -29 -1 C-24.542 -1.221 -20.084 -1.427 -15.625 -1.625 C-14.354 -1.689 -13.083 -1.754 -11.773 -1.82 C-10.562 -1.872 -9.35 -1.923 -8.102 -1.977 C-7.541 -2.003 -7.541 -2.003 -4.706 -2.135 C-2 -2 -2 -2 0 0 Z " fill="#E6CB17" transform="translate(99,28)"/>
<path d="M0 0 C3.96 0 7.92 0 12 0 C12 4.29 12 8.58 12 13 C8.04 13 4.08 13 0 13 C0 8.71 0 4.42 0 0 Z " fill="#E6CC19" transform="translate(69,65)"/>
<path d="M0 0 C0.33 0 0.66 0 1 0 C1 12.21 1 24.42 1 37 C5.373 36.917 9.745 36.835 14.25 36.75 C15.623 36.734 16.996 36.718 18.411 36.702 C18.954 36.687 18.954 36.687 21.703 36.609 C22.258 36.599 22.258 36.599 25.067 36.546 C28.608 35.887 29.824 34.819 32 32 C32.172 29.859 32.172 29.859 31.75 27.75 C31.502 26.513 31.255 25.275 31 24 C28.525 23.67 28.525 23.67 16 22 C16 21.67 16 21.34 16 21 C17.917 20.973 19.833 20.954 21.75 20.938 C22.284 20.932 22.284 20.932 24.984 20.902 C27.534 20.985 29.579 21.254 32 22 C32 22.99 32 23.98 32 25 C33.65 25.33 35.3 25.66 37 26 C36.67 29.63 36.34 33.26 36 37 C31.651 37.87 28.127 38.116 23.73 38.098 C22.484 38.095 21.238 38.093 19.954 38.09 C18.381 38.081 16.808 38.072 15.188 38.062 C12.682 38.052 12.682 38.052 0 38 C0 25.46 0 12.92 0 0 Z " fill="#D6C133" transform="translate(65,15)"/>
<path d="M0 0 C9.289 -0.31 9.289 -0.31 12 2 C13.223 4.293 14.093 6.55 15 9 C14.408 9.061 13.817 9.121 13.207 9.184 C9.09 9.62 5.045 10.087 1 11 C-0.554 7.892 -1.213 5.128 -0.562 1.688 C-0.377 1.131 -0.191 0.574 0 0 Z " fill="#110C06" transform="translate(68,13)"/>
<path d="M0 0 C0.66 0 1.32 0 2 0 C2 1.98 2 3.96 2 6 C2.66 5.01 3.32 4.02 4 3 C4 4.65 4 6.3 4 8 C8.29 8 12.58 8 17 8 C17 8.66 17 9.32 17 10 C12.05 10 7.1 10 2 10 C2 18.58 2 27.16 2 36 C1.67 36.165 1.67 36.165 0 37 C0 24.79 0 12.58 0 0 Z " fill="#080501" transform="translate(66,15)"/>
<path d="M0 0 C0.66 0.33 1.32 0.66 2 1 C3.874 1.07 5.75 1.084 7.625 1.062 C8.628 1.053 9.631 1.044 10.664 1.035 C11.435 1.024 12.206 1.012 13 1 C13 2.32 13 3.64 13 5 C13.557 5.206 14.114 5.413 14.688 5.625 C18.976 8.175 22.186 12.367 24 17 C24.195 20.016 24.195 20.016 24.125 23.25 C24.107 24.328 24.089 25.405 24.07 26.516 C24.047 27.335 24.024 28.155 24 29 C23.67 29 23.34 29 23 29 C22.951 28.566 22.951 28.566 22.703 26.367 C21.165 14.512 21.165 14.512 17 10 C12.1 6.3 8.364 4.936 2.312 4.438 C1.319 4.354 0.325 4.27 -0.699 4.184 C-1.079 4.153 -1.079 4.153 -3 4 C-3 3.34 -3 2.68 -3 2 C-2.01 2 -1.02 2 0 2 C0 1.34 0 0.68 0 0 Z " fill="#140D03" transform="translate(87,21)"/>
<path d="M0 0 C2.495 2.495 2.359 3.673 2.625 7.125 C2.7 8.035 2.775 8.945 2.852 9.883 C2.901 10.581 2.95 11.28 3 12 C2.34 12 1.68 12 1 12 C1 12.66 1 13.32 1 14 C0.34 14 -0.32 14 -1 14 C-1 14.66 -1 15.32 -1 16 C-5.62 16 -10.24 16 -15 16 C-12 14 -12 14 -8.562 12.312 C-3.589 9.516 -1.778 5.333 0 0 Z M-3.188 11 C-3.786 11.66 -4.384 12.32 -5 13 C-3.68 13 -2.36 13 -1 13 C0.75 11 0.75 11 2 9 C-1 9 -1 9 -3.188 11 Z " fill="#1C180A" transform="translate(109,48)"/>
<path d="M0 0 C0.66 0.33 1.32 0.66 2 1 C2.042 3.333 2.041 5.667 2 8 C1 9 1 9 -2.312 9.125 C-5.146 9.029 -7.336 8.852 -10 8 C-9.979 7.216 -9.959 6.433 -9.938 5.625 C-10 3 -10 3 -11 1 C-10.402 1.186 -9.804 1.371 -9.188 1.562 C-7 2 -7 2 -4 1 C-4.186 1.804 -4.371 2.609 -4.562 3.438 C-4.707 4.283 -4.851 5.129 -5 6 C-4.67 6.33 -4.34 6.66 -4 7 C-3.67 5.02 -3.34 3.04 -3 1 C-2.01 0.67 -1.02 0.34 0 0 Z " fill="#675F31" transform="translate(95,14)"/>
<path d="M0 0 C4.383 3.945 5.788 6.885 6.375 12.75 C6.205 18.361 4.2 23.479 0.504 27.715 C-1.062 29.125 -1.062 29.125 -4 31 C-4.99 30.67 -5.98 30.34 -7 30 C-6.34 29.67 -5.68 29.34 -5 29 C-5.33 28.34 -5.66 27.68 -6 27 C-5.01 27 -4.02 27 -3 27 C-2.505 25.845 -2.505 25.845 0 20 C0.66 20.33 1.32 20.66 2 21 C3.959 17.082 3.362 12.28 3 8 C1.5 4.438 1.5 4.438 0 2 C0 1.34 0 0.68 0 0 Z " fill="#DFCB40" transform="translate(104,31)"/>
<path d="M0 0 C3.96 0 7.92 0 12 0 C12 4.29 12 8.58 12 13 C8.04 13 4.08 13 0 13 C0 8.71 0 4.42 0 0 Z M1 2 C1 5.3 1 8.6 1 12 C3.97 12 6.94 12 10 12 C10 8.7 10 5.4 10 2 C7.03 2 4.06 2 1 2 Z " fill="#DBCA53" transform="translate(69,65)"/>
<path d="M0 0 C4.62 0 9.24 0 14 0 C16.168 4.336 16.273 5.495 15 10 C14.01 10.66 13.02 11.32 12 12 C11.01 11.34 10.02 10.68 9 10 C10.32 10 11.64 10 13 10 C13 8.02 13 6.04 13 4 C10.625 3.375 10.625 3.375 8 3 C7.34 3.66 6.68 4.32 6 5 C6 4.01 6 3.02 6 2 C4.35 1.67 2.7 1.34 1 1 C1 4.3 1 7.6 1 11 C0.67 11 0.34 11 0 11 C0 7.37 0 3.74 0 0 Z " fill="#191614" transform="translate(82,39)"/>
<path d="M0 0 C2.312 0.188 2.312 0.188 5 1 C6.875 3.312 6.875 3.312 8 6 C7.688 8.312 7.688 8.312 7 10 C4.69 10 2.38 10 0 10 C0 6.7 0 3.4 0 0 Z " fill="#141412" transform="translate(83,40)"/>
<path d="M0 0 C5.411 -0.361 5.411 -0.361 7.938 1.188 C9 3 9 3 8.688 5.688 C8.461 6.451 8.234 7.214 8 8 C8.99 8.33 9.98 8.66 11 9 C10.67 9.165 10.67 9.165 9 10 C8.34 9.67 7.68 9.34 7 9 C6.67 9.66 6.34 10.32 6 11 C6 10.34 6 9.68 6 9 C5.093 9.186 4.185 9.371 3.25 9.562 C0.317 9.957 -1.264 9.947 -4 9 C2.75 7 2.75 7 5 7 C4.34 5.02 3.68 3.04 3 1 C2.01 1.33 1.02 1.66 0 2 C0 1.34 0 0.68 0 0 Z " fill="#211D0B" transform="translate(77,14)"/>
<path d="M0 0 C0.66 0 1.32 0 2 0 C2.99 2.31 3.98 4.62 5 7 C2.36 7 -0.28 7 -3 7 C-2.01 4.69 -1.02 2.38 0 0 Z " fill="#D6C855" transform="translate(78,15)"/>
<path d="M0 0 C0.598 0.186 1.196 0.371 1.812 0.562 C4 1 4 1 7 0 C6.814 0.784 6.629 1.567 6.438 2.375 C6 5 6 5 7 7 C5.02 7 3.04 7 1 7 C1.021 6.216 1.041 5.433 1.062 4.625 C1 2 1 2 0 0 Z " fill="#D5C95F" transform="translate(84,15)"/>
<path d="M0 0 C1.562 1.625 1.562 1.625 3 4 C2.875 7.125 2.875 7.125 2 10 C1.01 10.66 0.02 11.32 -1 12 C-1.99 11.34 -2.98 10.68 -4 10 C-2.68 10 -1.36 10 0 10 C0 9.093 0 8.185 0 7.25 C0 4.833 0 2.417 0 0 Z " fill="#2F2607" transform="translate(95,39)"/>
<path d="M0 0 C1.98 0 3.96 0 6 0 C6 0.66 6 1.32 6 2 C5.34 2 4.68 2 4 2 C4 3.65 4 5.3 4 7 C3.34 7 2.68 7 2 7 C2 5.35 2 3.7 2 2 C1.34 2 0.68 2 0 2 C0 1.34 0 0.68 0 0 Z " fill="#D7CB6E" transform="translate(69,15)"/>
<path d="M0 0 C0.33 0.66 0.66 1.32 1 2 C1.66 2 2.32 2 3 2 C3 3.65 3 5.3 3 7 C3.66 7.33 4.32 7.66 5 8 C3.68 8.33 2.36 8.66 1 9 C-0.169 6.661 -0.613 4.581 -1 2 C-0.67 1.34 -0.34 0.68 0 0 Z " fill="#373112" transform="translate(68,15)"/>
<path d="M0 0 C3.318 0.987 4.765 1.687 6.875 4.5 C7.246 5.325 7.618 6.15 8 7 C7.67 7.66 7.34 8.32 7 9 C6.34 9 5.68 9 5 9 C4.34 7.02 3.68 5.04 3 3 C2.34 3 1.68 3 1 3 C0.67 2.01 0.34 1.02 0 0 Z " fill="#E9D136" transform="translate(98,27)"/>
<path d="M0 0 C2.31 0 4.62 0 7 0 C6.01 0.33 5.02 0.66 4 1 C4 3.31 4 5.62 4 8 C3.01 7.34 2.02 6.68 1 6 C1.66 4.35 2.32 2.7 3 1 C2.01 0.67 1.02 0.34 0 0 Z " fill="#100B00" transform="translate(88,14)"/>
<path d="M0 0 C-2 2 -2 2 -3.945 2.195 C-5.964 2.13 -7.982 2.065 -10 2 C-9 0 -9 0 -7.25 -0.688 C-4.608 -1.054 -2.573 -0.643 0 0 Z " fill="#2E280F" transform="translate(83,22)"/>
<path d="M0 0 C1.32 0 2.64 0 4 0 C2.25 4.875 2.25 4.875 0 6 C0 4.02 0 2.04 0 0 Z " fill="#1E1500" transform="translate(73,17)"/>
</svg>
