<?xml version="1.0" encoding="UTF-8"?>
<svg id="Layer_1" xmlns="http://www.w3.org/2000/svg" version="1.1" viewBox="0 0 1200 1200">
  <!-- Generator: Adobe Illustrator 29.8.6, SVG Export Plug-In . SVG Version: 2.1.1 Build 1)  -->
  <defs>
    <style>
      .st0 {
        fill: #edcd18;
      }
    </style>
  </defs>
  <g>
    <path class="st0" d="M527.57,881.18c59.84-.74,119.68.8,179.51-.74.18,44.25-.43,150.16.43,194.4-59.96-1.11-119.92.06-179.88-.68.43-43.75.49-149.23-.06-192.98Z"/>
    <path class="st0" d="M1054.15,348.44c-44.68-43.75-106.86-67.91-169.16-67.91-119-.19-238,.18-356.99-.12-.08,51.96-.05,103.92-.04,155.88h-.39v220.61h179.94v-196.97c50.74.43,101.48-.06,152.21.25,51.58.55,98.72,43.51,103.71,94.84,9.86,60.39-41.72,122.45-103.1,122.63-126.89.55-253.77,0-380.6.25.92-184.2.25-368.39.25-552.59-58.85.31-117.7-.86-176.49.68.81,184.37.6,368.76.43,553.15h-.43v177.85h216.88v-.09c113.08.02,226.16.04,339.22.08,62.3.25,124.48-20.77,173.47-59.34,68.77-52.13,113.27-136.62,112.9-223.39,2.4-83.32-29.95-168.98-91.82-225.79Z"/>
  </g>
  <g>
    <path class="st0" d="M54.2,692.4h53.82v53.83h144.49v60.9H108.02v53.83h-53.82v-168.56Z"/>
    <path class="st0" d="M252.5,686.82l-198.6-83.28v-56.96l198.6-83.56v66l-28.34,10.78v71.68l28.34,10.47v64.87ZM177.15,557.36l-48.45,17.85v.85l48.45,18.13v-36.83Z"/>
    <path class="st0" d="M252.5,433.13l-101.71-68.56-96.6,64.89v-68.58l49.57-30.3-49.57-30.88v-67.43l96.32,64.59,101.99-68.56v68.27l-55.24,34.85,55.24,34.27v67.43Z"/>
    <path class="st0" d="M54.2,186.51v-60.92h198.31v60.92H54.2Z"/>
  </g>
</svg>